PathFileType	4	(X/Y/Z)	C:/Users/beibeiliu/ov580/test_trc/User2\sequence.33_training_dense_left.trc
DataRate	CameraRate	NumFrames	NumMarkers	Units	OrigDataRate	OrigDataStartFrame	OrigNumFrames
120	120	19	19	mm	120	372	424
Frame#	Time	ThumbCMC			ThumbMCP			ThumbIP			ThumbTip			IndexMCP			IndexPIP			IndexTip			MiddleMCP			MiddlePIP			MiddleTip			RingMCP			RingPIP			RingTip			PinkyMCP			PinkyPIP			PinkyTip			BackHand1			BackHand2			BackHand3	
		X0	Y0	Z0	X1	Y1	Z1	X2	Y2	Z2	X3	Y3	Z3	X4	Y4	Z4	X5	Y5	Z5	X6	Y6	Z6	X7	Y7	Z7	X8	Y8	Z8	X9	Y9	Z9	X10	Y10	Z10	X11	Y11	Z11	X12	Y12	Z12	X13	Y13	Z13	X14	Y14	Z14	X15	Y15	Z15	X16	Y16	Z16	X17	Y17	Z17	X18	Y18	Z18	
371	3.09167	-196.167	-0.892853	47.846	-175.122	1.18333	19.5628	-158.254	-0.3316	-6.76895	-142.989	-2.75782	-26.2616	-234.487	-9.78627	-29.8284	-241.29	-13.6408	-59.0145	-247.758	-19.7339	-83.073	-254.713	-28.7914	-31.6897	-262.178	-35.3657	-64.1854	-265.697	-46.6405	-93.3862	-265.578	-53.0756	-13.9019	-273.138	-58.5969	-42.7802	-272.997	-66.4076	-73.7326	-266.119	-71.8714	2.43465	-274.201	-79.06	-18.9438	-278.575	-86.5335	-46.7379	-256.02	-39.3632	36.5248	-256.484	-32.6994	64.3941	-237.542	-7.70415	43.4789	
372	3.1	-189.473	-3.47553	50.0424	-165.106	-4.50583	26.9932	-149.196	-9.07038	-3.24469	-132.298	-12.9575	-26.9353	-223.192	-13.9803	-28.5379	-228.134	-20.4742	-55.813	-230.331	-25.3391	-82.9955	-245.872	-32.3244	-29.43	-247.701	-37.7091	-63.4587	-250.824	-49.6534	-90.9146	-258.139	-50.0378	-15.2671	-264.579	-58.426	-43.7165	-260.298	-66.3467	-77.2705	-259.086	-67.5971	0.610363	-270.085	-78.3665	-21.1559	-272.821	-85.3738	-48.8169	-253.818	-41.9856	35.5085	-250.789	-29.6402	66.4256	-232.272	-10.0634	43.9167	
373	3.10833	-181.176	-4.58162	51.4308	-159.304	-10.4285	31.3801	-139.013	-16.164	2.69474	-121.893	-22.0839	-17.2697	-212.32	-15.4324	-28.7329	-213.225	-22.1264	-57.1173	-213.888	-30.1573	-82.9842	-237.008	-33.442	-28.9906	-237.985	-44.089	-64.0567	-235.645	-60.2876	-92.5347	-251.619	-49.454	-18.117	-253.19	-57.9105	-48.613	-249.097	-71.862	-75.6004	-257.452	-69.9469	5.51156	-263.269	-75.6648	-25.0629	-264.713	-84.5884	-46.7959	-248.805	-37.9904	34.6588	-247.893	-26.4487	67.5147	-227.386	-7.5622	41.621	
374	3.11667	-175.042	-7.29063	54.1066	-150.784	-12.8292	32.3372	-131.516	-22.1644	10.2424	-117.219	-33.8244	-11.9584	-204.181	-20.0616	-26.0546	-203.617	-28.8066	-55.3419	-198.138	-39.0385	-78.5662	-229.162	-36.9217	-32.4081	-226.005	-45.4359	-59.5374	-221.281	-70.8595	-90.1518	-243.613	-50.3118	-17.1117	-245.235	-61.4503	-47.849	-234.78	-76.4091	-74.5964	-249.891	-65.1514	2.58378	-258.845	-79.0035	-24.6299	-257.616	-89.3748	-45.9411	-245.84	-35.6506	32.797	-244.41	-25.1859	64.493	-217.854	-4.21829	40.4888	
375	3.125	-173.235	-10.3362	57.6154	-145.372	-17.6383	37.1815	-120.873	-28.9048	14.6904	-107.463	-41.9869	-6.62735	-196.657	-26.2361	-24.0732	-191.221	-35.6182	-53.5461	-182.069	-51.8494	-79.6723	-219.899	-37.6147	-27.0768	-216.162	-53.4807	-61.2075	-207.043	-76.8205	-82.6185	-235.531	-50.0687	-15.9028	-234.577	-61.1794	-44.882	-225.931	-85.314	-70.0413	-249.336	-68.1737	3.77662	-250.765	-78.6459	-21.3577	-246.054	-92.7745	-45.6442	-239.543	-33.7275	32.396	-242.127	-21.1993	65.076	-213.69	-5.74721	45.3779	
376	3.13333	-168.946	-13.5658	58.4763	-137.856	-21.8002	41.977	-118.245	-36.798	20.7445	-101.492	-49.8688	5.16287	-188.762	-30.9591	-25.8345	-179.243	-42.7415	-53.4781	-171.954	-61.2797	-69.7233	-213.273	-41.689	-27.3357	-203.463	-58.0932	-58.6673	-193.206	-85.0041	-77.1204	-230.647	-55.2012	-20.3736	-229.742	-69.9378	-43.5788	-213.563	-87.8553	-62.2828	-242.834	-66.7041	2.21234	-245.169	-81.618	-20.7604	-233.5	-97.981	-44.2455	-236.219	-32.0043	38.0585	-236.516	-19.6714	62.941	-207.093	-8.50568	40.9944	
377	3.14167	-162.386	-13.8209	61.9092	-135.828	-25.819	45.4482	-113.647	-41.6117	27.001	-97.1443	-55.5156	13.5113	-178.373	-32.8705	-23.3266	-168.73	-48.4337	-47.9322	-162.632	-72.7395	-62.8804	-201.999	-44.2456	-29.794	-195.002	-63.3748	-54.1934	-184.478	-96.1941	-68.8086	-220.751	-57.2065	-19.3533	-219.195	-74.8619	-40.2471	-202.687	-98.2415	-55.4288	-236.838	-68.5332	5.38118	-238.788	-85.9437	-18.5922	-225.972	-102.747	-38.5342	-229.123	-32.3631	37.4626	-235.864	-22.2178	63.9843	-203.779	-8.23173	43.3213	
378	3.15	-158.809	-16.6162	61.1458	-130.832	-29.8977	48.9132	-105.194	-45.7566	33.6241	-94.107	-63.4659	18.388	-174.554	-39.1205	-21.9789	-161.778	-57.1172	-45.6283	-157.343	-83.8478	-56.379	-197.186	-50.3359	-24.769	-189.363	-76.8569	-50.4767	-176.13	-104.787	-61.503	-218.65	-61.7736	-12.9662	-213.552	-81.8211	-38.0402	-193.934	-109.442	-49.5286	-233.783	-72.4968	4.82923	-231.615	-92.4937	-17.788	-217.914	-106.429	-34.4984	-228.648	-35.0718	38.4083	-234.488	-19.9312	62.2306	-198.829	-7.54737	45.2731	
379	3.15833	-154.079	-17.7696	65.882	-126.942	-32.1052	56.2163	-107.646	-51.4797	40.3678	-88.2234	-69.7383	26.3438	-170.385	-42.5849	-15.1325	-162.291	-61.531	-38.6208	-149.77	-89.9116	-50.8393	-191.546	-54.2311	-23.4415	-185.729	-78.5225	-44.4354	-170.333	-108.938	-54.4266	-210.112	-64.8463	-15.6386	-208.543	-86.027	-32.5997	-190.857	-110.748	-42.4254	-227.048	-74.0552	5.35465	-225.144	-93.1744	-14.6369	-215.287	-114.507	-28.3306	-226.438	-36.6806	40.0815	-229.795	-19.7073	63.8057	-192.172	-10.1037	46.3927	
380	3.16667	-154.002	-23.6273	66.049	-124.582	-39.2744	57.1236	-101.609	-58.5196	42.3746	-91.8348	-78.0994	28.7063	-164.422	-46.9237	-16.3381	-157.746	-68.1753	-36.4822	-145.315	-93.0142	-47.49	-189.792	-57.3119	-17.4793	-182.48	-83.053	-42.7205	-166.43	-117.506	-52.6046	-209.107	-68.4897	-11.6745	-202.638	-90.9667	-33.4391	-187.241	-118.007	-40.7267	-226.408	-77.3635	7.95497	-221.617	-95.8288	-11.0316	-210.846	-118.892	-24.8076	-222.265	-37.2508	35.9688	-223.189	-20.0207	63.8779	-191.197	-14.9213	45.1059	
381	3.175	-152.474	-29.1654	67.7616	-124.11	-46.9488	58.8256	-99.6028	-67.4983	43.723	-89.0402	-87.7309	33.7462	-163.779	-53.4424	-15.0981	-152.242	-68.7048	-33.5895	-146.367	-101.579	-48.3479	-188.354	-62.7563	-20.0433	-179.819	-87.0538	-42.7058	-169.241	-118.569	-52.7651	-210.593	-70.738	-9.26552	-202.996	-92.2828	-31.0351	-191.914	-118.824	-41.5697	-224.926	-78.2858	11.7162	-222.444	-99.4409	-10.9393	-208.739	-118.663	-24.2351	-220.071	-38.3431	38.4251	-223.13	-20.8401	67.4269	-188.932	-16.7614	49.4503	
382	3.18333	-145.484	-35.5727	72.2577	-125.911	-57.5387	61.3826	-100.457	-78.0664	50.5006	-86.8241	-98.3662	37.3533	-160.096	-56.7944	-10.3177	-150.872	-76.5518	-37.6349	-144.007	-101.222	-51.7849	-184.092	-64.1184	-20.0064	-177.701	-86.5603	-45.1803	-173.66	-119.321	-59.1614	-208.07	-73.4341	-12.7753	-205.655	-92.4193	-31.319	-197.082	-120.781	-46.8285	-228.085	-81.7353	7.74428	-222.284	-97.9701	-10.2428	-218.129	-120.616	-28.737	-212.748	-41.8702	38.3265	-217.925	-25.706	66.8353	-186.809	-22.1579	49.9844	
383	3.19167	-147.76	-46.4735	68.0656	-122.226	-66.7275	64.8893	-104.075	-90.8093	48.6402	-89.2445	-111.723	36.6925	-156.4	-61.1108	-12.386	-151.48	-77.9677	-36.024	-143.814	-102.773	-56.2951	-189.013	-66.8117	-16.6562	-184.741	-86.5707	-44.8465	-174.963	-115.44	-66.2736	-207.026	-75.1592	-10.7944	-206.503	-92.315	-33.6156	-200.005	-117.58	-51.3007	-228.263	-83.6205	9.29261	-225.216	-101.379	-14.8421	-223.723	-121.715	-32.8513	-211.525	-46.1171	40.2097	-218.869	-27.5008	67.58	-178.344	-27.6206	50.9701	
384	3.2	-142.877	-53.2451	73.4213	-122.276	-77.9462	62.0139	-99.5352	-99.6126	52.1222	-90.1316	-120.877	40.6085	-157.411	-69.0173	-14.1905	-149.605	-80.4983	-37.1667	-148.152	-102.741	-60.4284	-184.138	-70.0308	-17.4358	-183.462	-88.1406	-47.2056	-178.679	-114.337	-71.871	-208.88	-77.1443	-10.3023	-212.261	-92.2756	-34.979	-209.772	-117.009	-57.1713	-228.026	-86.012	11.9042	-228.574	-102.112	-15.8256	-228.575	-117.855	-37.8384	-213.192	-52.4338	38.1199	-217.173	-34.2046	64.8819	-178.967	-36.0151	47.1343	
385	3.20833	-145.931	-65.0604	69.369	-121.983	-87.9777	60.7493	-102.628	-110.744	52.9652	-87.8456	-131.749	42.543	-159.054	-75.2696	-10.9874	-145.736	-85.5316	-37.7381	-143.002	-103.751	-64.2429	-181.525	-76.0307	-20.437	-181.882	-92.2479	-51.4796	-179.901	-113.241	-76.2401	-210.09	-82.2148	-10.4801	-208.503	-93.7708	-37.0382	-208.82	-115.922	-64.5052	-230.058	-90.7467	9.92172	-231.317	-102.528	-14.0306	-232.279	-117.774	-38.6485	-213.09	-57.65	38.041	-211.834	-40.3367	67.7124	-178.407	-45.1466	49.2667	
386	3.21667	-146.63	-72.4373	70.2937	-122.658	-98.973	61.5243	-101.043	-121.517	53.0957	-88.3132	-142.373	43.8554	-155.101	-83.1735	-15.3398	-148.209	-94.6295	-41.823	-139.421	-106.455	-64.2777	-183.423	-83.6735	-22.6011	-178.975	-95.8072	-51.3647	-178.842	-116.556	-79.5103	-207.401	-89.0938	-14.1231	-207.593	-100.228	-38.2351	-209.33	-116.64	-63.5098	-226.098	-98.0219	8.23538	-233.43	-111.563	-20.6175	-235.488	-123.052	-38.7419	-212.364	-68.1207	35.2105	-212.257	-48.8201	64.5246	-177.538	-52.0862	45.8312	
387	3.225	-140.678	-83.5907	68.9327	-121.772	-108.465	64.4925	-101.225	-131.688	54.3656	-88.8028	-152.417	46.355	-152.256	-93.2035	-14.7262	-143.805	-101.063	-40.7474	-140.014	-113.565	-64.0353	-179.805	-93.4049	-24.5012	-178.062	-104.012	-51.0087	-178.475	-120.265	-78.6962	-206.944	-97.4861	-13.016	-209.087	-108.116	-39.7202	-207.918	-123.854	-67.4166	-227.118	-106.636	6.7253	-235.216	-119.65	-20.5192	-237.196	-128.365	-38.6767	-209.056	-76.2187	35.5707	-212.51	-57.0424	60.3498	-175.354	-62.3934	47.4765	
388	3.23333	-141.263	-92.5229	67.9846	-123.466	-116.131	67.9394	-98.8735	-140.229	58.4476	-86.9638	-162.381	50.2997	-153.761	-100.958	-12.2755	-144.532	-109.373	-36.3074	-138.909	-121.863	-65.7297	-177.347	-101.248	-23.1845	-179.143	-112.747	-50.8169	-177.701	-127.171	-77.961	-205.808	-107.111	-12.8778	-208.17	-116.776	-39.8343	-204.19	-131.123	-65.3898	-224.095	-116.17	3.94123	-233.533	-127.225	-16.754	-234.568	-134.393	-39.1066	-206.144	-83.0956	37.2269	-207.52	-62.8493	64.8154	-171.375	-68.6841	46.5727	
389	3.24167	-143.846	-98.2798	73.0077	-123.677	-125.059	66.8444	-98.0713	-148.886	59.9383	-85.9218	-170.95	50.4129	-148.436	-108.796	-8.47235	-142.888	-115.795	-34.281	-134.012	-125.759	-60.3271	-178.874	-108.926	-19.9625	-173.435	-121.092	-53.6876	-172.418	-134.705	-78.4729	-205.171	-114.189	-12.6922	-208.392	-124.462	-40.0214	-207.802	-137.87	-62.9319	-225.983	-122.708	4.23658	-231.508	-133.775	-19.9954	-233.117	-142.166	-39.1548	-206.351	-91.235	37.3517	-207.306	-71.6577	65.0156	-171.575	-78.4276	45.6926	
